# xmcd
#
# Track frame offsets:
#	150
#	18906
#	34837
#	51989
#	70549
#	89421
#	97683
#	116236
#	132236
#	149500
#	167825
#	186370
#	205653
#
# Disc length: 4440 seconds
#
# Revision: 4
# Processed by: cddbd v1.5.2PL0 Copyright (c) Steve Scherf et al.
# Submitted via: audiograbber 1.82.02
#
DISCID=b411560d
DTITLE=Camela - 10 De corazón
DYEAR=2004
DGENRE=Pop
TTITLE0=Con el calor de mi cuerpo
TTITLE1=Cuando zarpa el amor
TTITLE2=De corazón
TTITLE3=Mendigo y princesa
TTITLE4=Sentí el amor morir
TTITLE5=Para olvidarte (Dioni)
TTITLE6=Enamórame
TTITLE7=Querida amiga
TTITLE8=Niña, cómo te quiero!
TTITLE9=Ya me cansé
TTITLE10=Amigos
TTITLE11=Para olvidarte (Ángeles)
TTITLE12=--DATOS---
EXTD=
EXTT0=
EXTT1=
EXTT2=
EXTT3=
EXTT4=
EXTT5=
EXTT6=
EXTT7=
EXTT8=
EXTT9=
EXTT10=
EXTT11=
EXTT12=
PLAYORDER=
